HIERARCHY
ROOT joint_Root
{
	OFFSET 0.0 0.0 0.0
	CHANNELS 6 Xposition Yposition Zposition Zrotation Xrotation Yrotation 
	JOINT Hips
	{
		OFFSET -0.726466 93.3139 -2.00062
		CHANNELS 6 Xposition Yposition Zposition Zrotation Xrotation Yrotation 
		JOINT Spine
		{
			OFFSET 15.7357 0.0 0.0
			CHANNELS 6 Xposition Yposition Zposition Zrotation Xrotation Yrotation 
			JOINT Chest
			{
				OFFSET 8.98455 -0.406207 0.0
				CHANNELS 6 Xposition Yposition Zposition Zrotation Xrotation Yrotation 
				JOINT Neck
				{
					OFFSET 16.3773 0.0 0.0
					CHANNELS 6 Xposition Yposition Zposition Zrotation Xrotation Yrotation 
					JOINT Head
					{
						OFFSET 6.45672 0.0 0.0
						CHANNELS 6 Xposition Yposition Zposition Zrotation Xrotation Yrotation 
						End Site
						{
							OFFSET 0.0 0.0 0.0
						}
					}
				}
				JOINT Shoulder_L
				{
					OFFSET 12.9942 -0.242716 4.98039
					CHANNELS 6 Xposition Yposition Zposition Zrotation Xrotation Yrotation 
					JOINT UpperArm_L
					{
						OFFSET 5.34809 0.0 0.0
						CHANNELS 6 Xposition Yposition Zposition Zrotation Xrotation Yrotation 
						JOINT LowerArm_L
						{
							OFFSET 24.3286 1.87007e-05 0.0
							CHANNELS 6 Xposition Yposition Zposition Zrotation Xrotation Yrotation 
							JOINT Hand_L
							{
								OFFSET 22.2916 0.0 0.0
								CHANNELS 6 Xposition Yposition Zposition Zrotation Xrotation Yrotation 
								End Site
								{
									OFFSET 0.0 0.0 0.0
								}
							}
						}
					}
				}
				JOINT Shoulder_R
				{
					OFFSET 12.9945 -0.242716 -4.98039
					CHANNELS 6 Xposition Yposition Zposition Zrotation Xrotation Yrotation 
					JOINT UpperArm_R
					{
						OFFSET -5.34813 0.0 0.0
						CHANNELS 6 Xposition Yposition Zposition Zrotation Xrotation Yrotation 
						JOINT LowerArm_R
						{
							OFFSET -24.3289 0.000322201 0.0
							CHANNELS 6 Xposition Yposition Zposition Zrotation Xrotation Yrotation 
							JOINT Hand_R
							{
								OFFSET -22.2915 -0.000108084 0.0
								CHANNELS 6 Xposition Yposition Zposition Zrotation Xrotation Yrotation 
								End Site
								{
									OFFSET 0.0 0.0 0.0
								}
							}
						}
					}
				}
			}
		}
		JOINT UpperLeg_L
		{
			OFFSET -2.19248 -6.46944 0.0
			CHANNELS 6 Xposition Yposition Zposition Zrotation Xrotation Yrotation 
			JOINT LowerLeg_L
			{
				OFFSET 39.0811 0.0 -1.23785e-05
				CHANNELS 6 Xposition Yposition Zposition Zrotation Xrotation Yrotation 
				JOINT Foot_L
				{
					OFFSET 40.9854 0.0 -1.26872e-05
					CHANNELS 6 Xposition Yposition Zposition Zrotation Xrotation Yrotation 
					JOINT Toes_L
					{
						OFFSET 11.7543 0.0 0.0
						CHANNELS 6 Xposition Yposition Zposition Zrotation Xrotation Yrotation 
						End Site
						{
							OFFSET 0.0 0.0 0.0
						}
					}
				}
			}
		}
		JOINT UpperLeg_R
		{
			OFFSET -2.19251 6.46944 0.0
			CHANNELS 6 Xposition Yposition Zposition Zrotation Xrotation Yrotation 
			JOINT LowerLeg_R
			{
				OFFSET -39.0811 -0.00228153 -0.0401928
				CHANNELS 6 Xposition Yposition Zposition Zrotation Xrotation Yrotation 
				JOINT Foot_R
				{
					OFFSET -40.9854 0.0 0.0
					CHANNELS 6 Xposition Yposition Zposition Zrotation Xrotation Yrotation 
					JOINT Toes_R
					{
						OFFSET -11.7543 0.0 0.0
						CHANNELS 6 Xposition Yposition Zposition Zrotation Xrotation Yrotation 
						End Site
						{
							OFFSET 0.0 0.0 0.0
						}
					}
				}
			}
		}
	}
}
MOTION
Frames:	9
Frame Time:	0.0333333
0.000000 0.000000 0.000000 0.000000 0.000000 -0.000000 -2.678840 92.198800 -3.131830 87.342900 -1.562740 2.432610 15.735700 0.000005 -0.000001 63.379600 86.230500 -60.271500 8.984550 -0.406207 -0.000000 -0.920654 -3.612740 6.186190 16.377300 -0.000001 -0.000001 0.466604 -1.020000 -0.843892 6.456720 -0.000001 -0.000000 -1.993540 0.098558 13.008600 12.994200 -0.242716 4.980390 -85.659000 -9.325410 -64.898500 5.348090 -0.000007 -0.000001 -68.065800 -51.734100 -100.654000 24.328600 0.000019 0.000005 11.849700 5.025700 -67.338500 22.291600 -0.000001 0.000005 23.115800 5.623470 -12.861600 12.994500 -0.242716 -4.980390 89.613900 1.006170 -69.007900 -5.348130 -0.000001 -0.000004 -54.876900 77.139700 12.075000 -24.328900 0.000322 -0.000009 22.850500 -0.836306 -91.984400 -22.291500 -0.000108 -0.000004 40.175400 5.681770 -21.653000 -2.192480 -6.469440 -0.000000 -167.056000 -16.154700 -3.271840 39.081100 -0.000007 -0.000012 -0.143547 0.421581 18.803700 40.985400 -0.000006 -0.000013 -7.779870 3.330180 -60.622500 11.754300 -0.000000 0.000003 -0.000090 -0.000936 -16.613600 -2.192510 6.469440 -0.000001 176.590000 19.188400 176.853000 -39.081100 -0.002282 -0.040193 -0.065395 0.194707 19.439400 -40.985400 0.000008 0.000006 -3.089250 2.410150 -62.380100 -11.754300 -0.000006 -0.000006 -0.006201 -0.072647 -19.529900
0.000000 0.000000 0.000000 0.000000 0.000000 -0.000000 -2.674360 92.198000 -3.152410 87.344300 -1.593000 2.397590 15.735700 0.000005 -0.000001 63.195600 86.227900 -60.088400 8.984550 -0.406207 -0.000000 -0.926179 -3.636830 6.184200 16.377300 -0.000001 -0.000001 0.498759 -0.997478 -0.880475 6.456720 -0.000001 -0.000000 -2.020480 0.159763 13.041900 12.994200 -0.242716 4.980390 -85.648600 -9.352320 -64.908800 5.348090 -0.000007 -0.000001 -68.047500 -51.734400 -100.601000 24.328600 0.000019 0.000005 11.931500 5.073380 -67.290800 22.291600 -0.000001 0.000005 23.128600 5.623170 -12.840200 12.994500 -0.242716 -4.980390 89.600400 1.039750 -68.975200 -5.348130 -0.000001 -0.000004 -55.023900 77.023300 12.246100 -24.328900 0.000322 -0.000009 22.901300 -0.843609 -91.996700 -22.291500 -0.000108 -0.000004 40.083400 5.681720 -21.710100 -2.192480 -6.469440 -0.000000 -167.068000 -16.128300 -3.307060 39.081100 -0.000007 -0.000012 -0.144041 0.423004 18.804800 40.985400 -0.000006 -0.000013 -7.789610 3.284690 -60.627300 11.754300 -0.000000 0.000003 -0.000090 -0.000942 -16.613800 -2.192510 6.469440 -0.000001 176.604000 19.147700 176.799000 -39.081100 -0.002282 -0.040193 -0.064874 0.193246 19.437800 -40.985400 0.000008 0.000006 -3.151440 2.401210 -62.360800 -11.754300 -0.000006 -0.000006 -0.006330 -0.073801 -19.576900
0.000000 0.000000 0.000000 0.000000 0.000000 -0.000000 -2.666760 92.195800 -3.155530 87.359900 -1.647250 2.427160 15.735700 0.000005 -0.000001 63.158700 86.201200 -60.053200 8.984550 -0.406207 -0.000000 -0.880109 -3.663860 6.181970 16.377300 -0.000001 -0.000001 0.494653 -0.982173 -0.900493 6.456720 -0.000001 -0.000000 -1.997090 0.182893 13.030600 12.994200 -0.242716 4.980390 -85.656000 -9.346440 -64.932600 5.348090 -0.000007 -0.000001 -68.007100 -51.789700 -100.535000 24.328600 0.000019 0.000005 11.897000 5.065310 -67.262400 22.291600 -0.000001 0.000005 23.060700 5.624090 -12.905500 12.994500 -0.242716 -4.980390 89.605300 1.026780 -68.974100 -5.348130 -0.000001 -0.000004 -54.961000 76.904600 12.158800 -24.328900 0.000322 -0.000009 22.865600 -0.834323 -91.978200 -22.291500 -0.000108 -0.000004 39.858400 5.681600 -21.812900 -2.192480 -6.469440 -0.000000 -167.080000 -16.165200 -3.275840 39.081100 -0.000007 -0.000012 -0.143723 0.421605 18.824200 40.985400 -0.000006 -0.000013 -7.786300 3.254030 -60.639100 11.754300 -0.000000 0.000003 -0.000081 -0.000857 -16.610600 -2.192510 6.469440 -0.000001 176.570000 19.080100 176.809000 -39.081100 -0.002282 -0.040193 -0.065226 0.194042 19.456500 -40.985400 0.000008 0.000006 -3.180950 2.443510 -62.359000 -11.754300 -0.000006 -0.000006 -0.006519 -0.075481 -19.645500
0.000000 0.000000 0.000000 0.000000 0.000000 -0.000000 -2.673970 92.198200 -3.153000 87.352700 -1.709310 2.389940 15.735700 0.000005 -0.000001 63.021000 86.203300 -59.923500 8.984550 -0.406207 -0.000000 -0.891902 -3.678010 6.165420 16.377300 -0.000001 -0.000001 0.514311 -1.013050 -0.906696 6.456720 -0.000001 -0.000000 -2.023430 0.173297 13.070600 12.994200 -0.242716 4.980390 -85.645000 -9.360930 -64.910600 5.348090 -0.000007 -0.000001 -68.014800 -51.776500 -100.529000 24.328600 0.000019 0.000005 11.918500 5.075440 -67.259500 22.291600 -0.000001 0.000005 23.116800 5.624110 -12.906800 12.994500 -0.242716 -4.980390 89.589000 1.067190 -68.936300 -5.348130 -0.000001 -0.000004 -54.847900 76.898400 12.096900 -24.328900 0.000322 -0.000009 22.910500 -0.842919 -91.994200 -22.291500 -0.000108 -0.000004 39.817700 5.681590 -21.824100 -2.192480 -6.469440 -0.000000 -167.077000 -16.192700 -3.286460 39.081100 -0.000007 -0.000012 -0.143825 0.422441 18.801900 40.985400 -0.000006 -0.000013 -7.798160 3.208010 -60.635000 11.754300 -0.000000 0.000003 -0.000092 -0.000955 -16.614200 -2.192510 6.469440 -0.000001 176.599000 19.060000 176.781000 -39.081100 -0.002282 -0.040193 -0.064599 0.192550 19.430100 -40.985400 0.000008 0.000006 -3.198120 2.457040 -62.345000 -11.754300 -0.000006 -0.000006 -0.006340 -0.073891 -19.580600
0.000000 0.000000 0.000000 0.000000 0.000000 -0.000000 -2.675800 92.197300 -3.140840 87.344000 -1.801190 2.369080 15.735700 0.000005 -0.000001 63.117500 86.197700 -60.027400 8.984550 -0.406207 -0.000000 -0.876566 -3.670710 6.151180 16.377300 -0.000001 -0.000001 0.477579 -1.008570 -0.927857 6.456720 -0.000001 -0.000000 -1.993500 0.147109 13.117600 12.994200 -0.242716 4.980390 -85.652800 -9.338700 -64.898200 5.348090 -0.000007 -0.000001 -68.018500 -51.812300 -100.566000 24.328600 0.000019 0.000005 11.939200 5.090720 -67.234700 22.291600 -0.000001 0.000005 23.106600 5.624670 -12.947100 12.994500 -0.242716 -4.980390 89.589300 1.067430 -68.955500 -5.348130 -0.000001 -0.000004 -55.003400 76.845500 12.236500 -24.328900 0.000322 -0.000009 22.876300 -0.842048 -91.995400 -22.291500 -0.000108 -0.000004 39.762300 5.681570 -21.823500 -2.192480 -6.469440 -0.000000 -167.065000 -16.212700 -3.270160 39.081100 -0.000007 -0.000012 -0.143976 0.422889 18.801700 40.985400 -0.000006 -0.000013 -7.814730 3.142060 -60.660900 11.754300 -0.000000 0.000003 -0.000086 -0.000906 -16.612400 -2.192510 6.469440 -0.000001 176.611000 19.013200 176.751000 -39.081100 -0.002282 -0.040193 -0.065501 0.195063 19.434200 -40.985400 0.000008 0.000006 -3.171620 2.501860 -62.342700 -11.754300 -0.000006 -0.000006 -0.006106 -0.071795 -19.495100
0.000000 0.000000 0.000000 0.000000 0.000000 -0.000000 -2.674950 92.201800 -3.129430 87.356800 -1.854270 2.355700 15.735700 0.000005 -0.000001 63.172500 86.195800 -60.101800 8.984550 -0.406207 -0.000000 -0.870781 -3.664290 6.112480 16.377300 -0.000001 -0.000001 0.496241 -1.052430 -0.934956 6.456720 -0.000001 -0.000000 -2.025230 0.102814 13.132200 12.994200 -0.242716 4.980390 -85.643400 -9.367490 -64.917500 5.348090 -0.000007 -0.000001 -68.101800 -51.855200 -100.599000 24.328600 0.000019 0.000005 12.006400 5.107620 -67.285400 22.291600 -0.000001 0.000005 23.037400 5.623910 -12.892600 12.994500 -0.242716 -4.980390 89.580600 1.087460 -68.908000 -5.348130 -0.000001 -0.000004 -55.010400 76.822400 12.260300 -24.328900 0.000322 -0.000009 22.869400 -0.848822 -92.012200 -22.291500 -0.000108 -0.000004 39.739600 5.681580 -21.830400 -2.192480 -6.469440 -0.000000 -167.077000 -16.269600 -3.236900 39.081100 -0.000007 -0.000012 -0.142924 0.421044 18.750000 40.985400 -0.000006 -0.000013 -7.817040 3.126600 -60.643600 11.754300 -0.000000 0.000003 -0.000085 -0.000893 -16.611900 -2.192510 6.469440 -0.000001 176.611000 19.009000 176.750000 -39.081100 -0.002282 -0.040193 -0.063282 0.188905 19.421600 -40.985400 0.000008 0.000006 -3.124880 2.549780 -62.347000 -11.754300 -0.000006 -0.000006 -0.006455 -0.074918 -19.622500
0.000000 0.000000 0.000000 0.000000 0.000000 -0.000000 -2.684740 92.194800 -3.106520 87.315900 -1.925180 2.318990 15.735700 0.000005 -0.000001 63.212800 86.197100 -60.141200 8.984550 -0.406207 -0.000000 -0.870864 -3.658380 6.114410 16.377300 -0.000001 -0.000001 0.506596 -1.079980 -0.969039 6.456720 -0.000001 -0.000000 -2.046770 0.073245 13.144500 12.994200 -0.242716 4.980390 -85.634100 -9.372700 -64.882700 5.348090 -0.000007 -0.000001 -68.165100 -51.880000 -100.657000 24.328600 0.000019 0.000005 11.939800 5.082320 -67.269500 22.291600 -0.000001 0.000005 23.053200 5.623920 -12.893900 12.994500 -0.242716 -4.980390 89.581400 1.084390 -68.891400 -5.348130 -0.000001 -0.000004 -55.057700 76.741200 12.289500 -24.328900 0.000322 -0.000009 22.780700 -0.832468 -91.982000 -22.291500 -0.000108 -0.000004 39.651000 5.681330 -22.015300 -2.192480 -6.469440 -0.000000 -167.021000 -16.287400 -3.250320 39.081100 -0.000007 -0.000012 -0.145131 0.426320 18.800200 40.985400 -0.000006 -0.000013 -7.839940 3.108500 -60.703400 11.754300 -0.000000 0.000003 -0.000090 -0.000938 -16.613600 -2.192510 6.469440 -0.000001 176.664000 18.955600 176.711000 -39.081100 -0.002282 -0.040193 -0.064260 0.191537 19.435000 -40.985400 0.000008 0.000006 -3.122230 2.575890 -62.361600 -11.754300 -0.000006 -0.000006 -0.006059 -0.071370 -19.477800
0.000000 0.000000 0.000000 0.000000 0.000000 -0.000000 -2.694060 92.198100 -3.070510 87.316500 -1.962680 2.303020 15.735700 0.000005 -0.000001 63.038000 86.183100 -59.980500 8.984550 -0.406207 -0.000000 -0.856081 -3.690290 6.086440 16.377300 -0.000001 -0.000001 0.469656 -1.082680 -0.987908 6.456720 -0.000001 -0.000000 -2.028230 0.097919 13.137900 12.994200 -0.242716 4.980390 -85.630700 -9.356420 -64.827300 5.348090 -0.000007 -0.000001 -68.175200 -51.933000 -100.711000 24.328600 0.000019 0.000005 12.011300 5.112700 -67.273600 22.291600 -0.000001 0.000005 23.051200 5.621920 -12.753200 12.994500 -0.242716 -4.980390 89.571000 1.110560 -68.878300 -5.348130 -0.000001 -0.000004 -55.015200 76.659400 12.263300 -24.328900 0.000322 -0.000009 22.962200 -0.840486 -91.983500 -22.291500 -0.000108 -0.000004 39.506700 5.681480 -21.907500 -2.192480 -6.469440 -0.000000 -167.012000 -16.313700 -3.201580 39.081100 -0.000007 -0.000012 -0.143791 0.423773 18.742800 40.985400 -0.000006 -0.000013 -7.854660 3.093480 -60.700300 11.754300 -0.000000 0.000003 -0.000084 -0.000884 -16.611600 -2.192510 6.469440 -0.000001 176.671000 18.996200 176.730000 -39.081100 -0.002282 -0.040193 -0.062271 0.186145 19.411500 -40.985400 0.000008 0.000006 -3.082950 2.619700 -62.372600 -11.754300 -0.000006 -0.000006 -0.006523 -0.075515 -19.646900
0.000000 0.000000 0.000000 0.000000 0.000000 -0.000000 -2.711190 92.191400 -3.030980 87.288600 -1.976550 2.281320 15.735700 0.000005 -0.000001 62.944600 86.179100 -59.889500 8.984550 -0.406207 -0.000000 -0.854339 -3.704780 6.081610 16.377300 -0.000001 -0.000001 0.510226 -1.058920 -1.048210 6.456720 -0.000001 -0.000000 -2.060510 0.077855 13.143100 12.994200 -0.242716 4.980390 -85.627300 -9.354920 -64.806700 5.348090 -0.000007 -0.000001 -68.226300 -51.938700 -100.753000 24.328600 0.000019 0.000005 11.947100 5.089990 -67.251700 22.291600 -0.000001 0.000005 22.974700 5.622550 -12.797200 12.994500 -0.242716 -4.980390 89.571900 1.107730 -68.868000 -5.348130 -0.000001 -0.000004 -55.268400 76.540300 12.492800 -24.328900 0.000322 -0.000009 22.874200 -0.831537 -91.970800 -22.291500 -0.000108 -0.000004 39.534700 5.681390 -21.970800 -2.192480 -6.469440 -0.000000 -166.974000 -16.284200 -3.214340 39.081100 -0.000007 -0.000012 -0.144415 0.424542 18.786700 40.985400 -0.000006 -0.000013 -7.878970 3.049200 -60.750900 11.754300 -0.000000 0.000003 -0.000095 -0.000986 -16.615400 -2.192510 6.469440 -0.000001 176.697000 19.031400 176.739000 -39.081100 -0.002282 -0.040193 -0.063866 0.190642 19.414000 -40.985400 0.000008 0.000006 -3.107710 2.662380 -62.398800 -11.754300 -0.000006 -0.000006 -0.006447 -0.074840 -19.619300
